<svg width="18" height="18" viewBox="0 0 18 18" fill="none" xmlns="http://www.w3.org/2000/svg">
<path d="M9 0C7.21997 0 5.47991 0.527841 3.99987 1.51677C2.51983 2.50571 1.36628 3.91131 0.685088 5.55585C0.00389955 7.20038 -0.17433 9.00998 0.172936 10.7558C0.520203 12.5016 1.37737 14.1053 2.63604 15.364C3.89471 16.6226 5.49836 17.4798 7.24419 17.8271C8.99002 18.1743 10.7996 17.9961 12.4442 17.3149C14.0887 16.6337 15.4943 15.4802 16.4832 14.0001C17.4722 12.5201 18 10.78 18 9C18 6.61305 17.0518 4.32387 15.364 2.63604C13.6761 0.948211 11.387 0 9 0ZM9 16.7143C7.47426 16.7143 5.98278 16.2618 4.71418 15.4142C3.44557 14.5665 2.45681 13.3617 1.87293 11.9521C1.28906 10.5425 1.13629 8.99144 1.43395 7.49502C1.7316 5.99859 2.46632 4.62404 3.54518 3.54518C4.62404 2.46631 5.9986 1.7316 7.49502 1.43394C8.99145 1.13628 10.5425 1.28905 11.9521 1.87293C13.3617 2.4568 14.5665 3.44556 15.4142 4.71417C16.2619 5.98278 16.7143 7.47426 16.7143 9C16.7143 11.046 15.9015 13.0081 14.4548 14.4548C13.0081 15.9015 11.046 16.7143 9 16.7143ZM11.5714 10.2857C11.5714 10.7972 11.3682 11.2877 11.0066 11.6494C10.6449 12.0111 10.1543 12.2143 9.64286 12.2143V13.5H8.35715V12.2143H7.07143V10.9286H9.64286C9.81336 10.9286 9.97687 10.8608 10.0974 10.7403C10.218 10.6197 10.2857 10.4562 10.2857 10.2857C10.2857 10.1152 10.218 9.9517 10.0974 9.83114C9.97687 9.71058 9.81336 9.64286 9.64286 9.64286H8.35715C7.84566 9.64286 7.35512 9.43967 6.99344 9.07799C6.63176 8.71631 6.42857 8.22577 6.42857 7.71428C6.42857 7.2028 6.63176 6.71226 6.99344 6.35058C7.35512 5.9889 7.84566 5.78571 8.35715 5.78571V4.5H9.64286V5.78571H10.9286V7.07143H8.35715C8.18665 7.07143 8.02314 7.13916 7.90258 7.25972C7.78202 7.38027 7.71429 7.54379 7.71429 7.71428C7.71429 7.88478 7.78202 8.04829 7.90258 8.16885C8.02314 8.28941 8.18665 8.35714 8.35715 8.35714H9.64286C10.1543 8.35714 10.6449 8.56033 11.0066 8.92201C11.3682 9.28368 11.5714 9.77422 11.5714 10.2857Z" fill="#002D62"/>
</svg>
