<svg width="40" height="40" viewBox="0 0 40 40" fill="none" xmlns="http://www.w3.org/2000/svg">
<rect width="40" height="40" fill="white"/>
<path d="M20.5417 32H18.4583C17.5969 32 16.8958 31.299 16.8958 30.4375V28.4979C16.2291 28.3052 15.586 28.0384 14.9786 27.7026L13.6068 29.075C13.0161 29.6656 11.9875 29.6646 11.3969 29.075L9.92344 27.6021C9.62812 27.3073 9.46563 26.9146 9.46563 26.4974C9.46563 26.0802 9.62812 25.6875 9.92344 25.3927L11.2958 24.0198C10.96 23.4129 10.6936 22.7702 10.5016 22.1036H8.5625C7.70104 22.1036 7 21.4026 7 20.5411V18.4578C7 18.0401 7.1625 17.6479 7.45729 17.3531C7.60214 17.2076 7.77438 17.0922 7.96408 17.0136C8.15378 16.935 8.35717 16.8948 8.5625 16.8953H10.5021C10.6948 16.2297 10.9604 15.5875 11.2969 14.9792L9.925 13.6068C9.63233 13.3136 9.46795 12.9163 9.46795 12.5021C9.46795 12.0878 9.63233 11.6905 9.925 11.3974L11.3979 9.92396C11.988 9.33437 13.0172 9.33333 13.6078 9.92396L14.9802 11.2964C15.5871 10.961 16.2297 10.6945 16.8958 10.5021V8.5625C16.8958 7.70104 17.5969 7 18.4583 7H20.5417C21.4031 7 22.1042 7.70104 22.1042 8.5625V10.5021C22.7708 10.6948 23.4125 10.9609 24.0198 11.2964L25.3922 9.92396C25.9828 9.33437 27.0115 9.33333 27.6021 9.92396L29.0755 11.3969C29.3708 11.6917 29.5333 12.0844 29.5333 12.5016C29.5333 12.9187 29.3708 13.3115 29.0755 13.6062L27.7036 14.9786C28.0396 15.5857 28.3062 16.2286 28.4984 16.8953H30.4375C31.299 16.8953 32 17.5964 32 18.4578V20.5411C32 20.9589 31.8375 21.351 31.5427 21.6458C31.2479 21.9406 30.8552 22.1036 30.4375 22.1036H28.4979C28.3053 22.7702 28.0387 23.4131 27.7031 24.0203L29.075 25.3927C29.3677 25.6859 29.532 26.0832 29.532 26.4974C29.532 26.9116 29.3677 27.3089 29.075 27.6021L27.6021 29.0755C27.0115 29.6656 25.9828 29.6656 25.3922 29.0755L24.0208 27.7031C23.4138 28.0387 22.771 28.3053 22.1047 28.4979V30.4375C22.104 30.8518 21.9391 31.2489 21.6461 31.5418C21.3531 31.8347 20.9559 31.9994 20.5417 32ZM14.8943 26.5302C14.9875 26.5302 15.0818 26.5552 15.1656 26.6062C15.9006 27.0562 16.7014 27.3885 17.5391 27.5911C17.6526 27.6186 17.7537 27.6835 17.8259 27.7753C17.8982 27.8671 17.9375 27.9805 17.9375 28.0974V30.4375C17.9375 30.725 18.1714 30.9583 18.4583 30.9583H20.5417C20.8286 30.9583 21.0625 30.725 21.0625 30.4375V28.0974C21.0625 27.9805 21.1018 27.8671 21.1741 27.7753C21.2463 27.6835 21.3474 27.6186 21.4609 27.5911C22.2984 27.3886 23.099 27.0565 23.8339 26.6068C24.0401 26.4812 24.3036 26.513 24.474 26.6828L26.1292 28.3385C26.3245 28.5333 26.6703 28.5344 26.8661 28.3385L28.3391 26.8651C28.4367 26.7674 28.4916 26.635 28.4916 26.4969C28.4916 26.3588 28.4367 26.2263 28.3391 26.1286L26.6833 24.4729C26.6006 24.3902 26.5482 24.2822 26.5344 24.166C26.5206 24.0499 26.5463 23.9326 26.6073 23.8328C27.057 23.098 27.3889 22.2973 27.5911 21.4599C27.6185 21.3462 27.6833 21.2451 27.7751 21.1727C27.867 21.1003 27.9805 21.061 28.0974 21.0609H30.4375C30.5059 21.0612 30.5737 21.048 30.6369 21.022C30.7001 20.9959 30.7576 20.9577 30.806 20.9094C30.8544 20.8611 30.8928 20.8037 30.9189 20.7405C30.9451 20.6773 30.9585 20.6095 30.9583 20.5411V18.4578C30.9583 18.1703 30.7245 17.937 30.4375 17.937H28.0974C27.9805 17.937 27.8669 17.8977 27.7751 17.8253C27.6832 17.7529 27.6184 17.6517 27.5911 17.538C27.389 16.7006 27.0571 15.8999 26.6073 15.1651C26.5463 15.0654 26.5206 14.948 26.5344 14.8319C26.5482 14.7158 26.6006 14.6077 26.6833 14.525L28.3391 12.8693C28.4359 12.7719 28.4917 12.638 28.4917 12.501C28.4917 12.3641 28.4359 12.2297 28.3391 12.1328L26.8656 10.6599C26.7662 10.5654 26.6343 10.5127 26.4971 10.5127C26.36 10.5127 26.2281 10.5654 26.1286 10.6599L24.4729 12.3156C24.3905 12.3987 24.2824 12.4515 24.1661 12.4653C24.0499 12.4791 23.9324 12.4531 23.8328 12.3917C23.0983 11.9421 22.298 11.6102 21.4609 11.4078C21.3474 11.3806 21.2463 11.316 21.174 11.2244C21.1018 11.1327 21.0625 11.0193 21.0625 10.9026V8.5625C21.0625 8.275 20.8286 8.04167 20.5417 8.04167H18.4583C18.1714 8.04167 17.9375 8.275 17.9375 8.5625V10.9026C17.9375 11.0195 17.8982 11.1329 17.8259 11.2247C17.7537 11.3165 17.6526 11.3814 17.5391 11.4089C16.7017 11.6112 15.901 11.9431 15.1661 12.3927C15.0665 12.4538 14.9492 12.4795 14.8332 12.4657C14.7171 12.4519 14.6091 12.3994 14.5266 12.3167L12.8708 10.6609C12.7714 10.5665 12.6395 10.5138 12.5023 10.5138C12.3652 10.5138 12.2333 10.5665 12.1339 10.6609L10.6615 12.1339C10.5638 12.2315 10.509 12.364 10.509 12.5021C10.509 12.6402 10.5638 12.7726 10.6615 12.8703L12.3172 14.526C12.3999 14.6087 12.4523 14.7168 12.4661 14.8329C12.4799 14.949 12.4542 15.0664 12.3932 15.1661C11.9436 15.9008 11.6116 16.7013 11.4094 17.5385C11.382 17.6522 11.3172 17.7534 11.2254 17.8257C11.1335 17.8981 11.02 17.9375 10.9031 17.9375H8.5625C8.49407 17.9372 8.42626 17.9505 8.36298 17.9765C8.2997 18.0026 8.2422 18.0409 8.19379 18.0892C8.14537 18.1376 8.10701 18.1951 8.0809 18.2583C8.05479 18.3216 8.04146 18.3894 8.04167 18.4578V20.5411C8.04167 20.8286 8.27552 21.062 8.5625 21.062H10.9026C11.1432 21.062 11.3526 21.2266 11.4089 21.4609C11.6112 22.2982 11.9431 23.0986 12.3927 23.8333C12.4537 23.9331 12.4794 24.0505 12.4656 24.1666C12.4518 24.2827 12.3994 24.3908 12.3167 24.4734L10.6609 26.1297C10.5641 26.2271 10.5083 26.3609 10.5083 26.4979C10.5083 26.6349 10.5641 26.7693 10.6609 26.8661L12.1344 28.3391C12.2338 28.4335 12.3657 28.4862 12.5029 28.4862C12.64 28.4862 12.7719 28.4335 12.8714 28.3391L14.5266 26.6833C14.5746 26.6347 14.6319 26.5961 14.695 26.5698C14.7582 26.5435 14.8259 26.5301 14.8943 26.5302Z" fill="black"/>
<path d="M19.4998 24.7084C16.628 24.7084 14.2915 22.3719 14.2915 19.5C14.2915 16.6281 16.628 14.2917 19.4998 14.2917C22.3717 14.2917 24.7082 16.6281 24.7082 19.5C24.7082 22.3719 22.3722 24.7084 19.4998 24.7084ZM19.4998 15.3334C17.2024 15.3334 15.3332 17.2026 15.3332 19.5C15.3332 21.7974 17.2024 23.6667 19.4998 23.6667C21.7972 23.6667 23.6665 21.7974 23.6665 19.5C23.6665 17.2026 21.7978 15.3334 19.4998 15.3334Z" fill="black"/>
</svg>
