<svg width="150" height="150" viewBox="0 0 150 150" fill="none" xmlns="http://www.w3.org/2000/svg">
<rect width="150" height="150" rx="7" fill="#002D62"/>
<path d="M75 100C61.214 100 50 88.786 50 75C50 61.214 61.214 50 75 50C88.786 50 100 61.214 100 75C100 88.786 88.786 100 75 100ZM75 54C63.42 54 54 63.42 54 75C54 86.58 63.42 96 75 96C86.58 96 96 86.578 96 75C96 63.422 86.58 54 75 54Z" fill="white"/>
<path d="M75 89C74.4696 89 73.9609 88.7893 73.5858 88.4142C73.2107 88.0391 73 87.5304 73 87V63C73 62.4696 73.2107 61.9609 73.5858 61.5858C73.9609 61.2107 74.4696 61 75 61C75.5304 61 76.0391 61.2107 76.4142 61.5858C76.7893 61.9609 77 62.4696 77 63V87C77 87.5304 76.7893 88.0391 76.4142 88.4142C76.0391 88.7893 75.5304 89 75 89Z" fill="white"/>
<path d="M87 77H63C62.4696 77 61.9609 76.7893 61.5858 76.4142C61.2107 76.0391 61 75.5304 61 75C61 74.4696 61.2107 73.9609 61.5858 73.5858C61.9609 73.2107 62.4696 73 63 73H87C87.5304 73 88.0391 73.2107 88.4142 73.5858C88.7893 73.9609 89 74.4696 89 75C89 75.5304 88.7893 76.0391 88.4142 76.4142C88.0391 76.7893 87.5304 77 87 77Z" fill="white"/>
</svg>
