<svg width="20" height="22" viewBox="0 0 20 22" fill="none" xmlns="http://www.w3.org/2000/svg">
<path d="M9.99999 6.01383H0.569525C0.469801 6.01369 0.371858 5.98473 0.285494 5.92985C0.19913 5.87497 0.127373 5.79609 0.0773998 5.70111C0.0274268 5.60613 0.000990017 5.49836 0.000734295 5.3886C0.000478573 5.27884 0.0264128 5.17093 0.0759426 5.07567L2.34301 0.706649C2.39278 0.610911 2.46463 0.531324 2.55129 0.475927C2.63796 0.42053 2.73637 0.391284 2.83659 0.391144H9.99999C10.151 0.391144 10.2959 0.457185 10.4027 0.574739C10.5095 0.692292 10.5695 0.85173 10.5695 1.01798C10.5695 1.18422 10.5095 1.34366 10.4027 1.46121C10.2959 1.57877 10.151 1.64481 9.99999 1.64481H3.16805L1.55099 4.76016H9.99999C10.151 4.76016 10.2959 4.8262 10.4027 4.94376C10.5095 5.06131 10.5695 5.22075 10.5695 5.387C10.5695 5.55324 10.5095 5.71268 10.4027 5.83023C10.2959 5.94779 10.151 6.01383 9.99999 6.01383Z" fill="black" fill-opacity="0.75"/>
<path d="M19.4304 6.01383H9.99998C9.84894 6.01383 9.70408 5.94779 9.59727 5.83023C9.49047 5.71268 9.43046 5.55324 9.43046 5.387C9.43046 5.22075 9.49047 5.06131 9.59727 4.94376C9.70408 4.8262 9.84894 4.76016 9.99998 4.76016H18.449L16.8319 1.64481H9.99998C9.84894 1.64481 9.70408 1.57877 9.59727 1.46121C9.49047 1.34366 9.43046 1.18422 9.43046 1.01798C9.43046 0.85173 9.49047 0.692292 9.59727 0.574739C9.70408 0.457185 9.84894 0.391144 9.99998 0.391144H17.1622C17.2625 0.391284 17.3609 0.42053 17.4475 0.475927C17.5342 0.531324 17.6061 0.610911 17.6558 0.706649L19.9248 5.07525C19.9743 5.17052 20.0003 5.27843 20 5.38819C19.9997 5.49795 19.9733 5.60571 19.9233 5.70069C19.8734 5.79568 19.8016 5.87455 19.7152 5.92943C19.6289 5.98431 19.5309 6.01327 19.4312 6.01341L19.4304 6.01383ZM2.92732 10.6804C2.15123 10.6794 1.40718 10.3396 0.858392 9.73561C0.309608 9.1316 0.000904367 8.31267 0 7.45847V5.387C4.50151e-09 5.22075 0.0600026 5.06131 0.166808 4.94376C0.273613 4.8262 0.418473 4.76016 0.569518 4.76016C0.720564 4.76016 0.865423 4.8262 0.972229 4.94376C1.07903 5.06131 1.13904 5.22075 1.13904 5.387V7.45889C1.13558 7.71975 1.17928 7.97876 1.26759 8.22086C1.3559 8.46297 1.48706 8.68334 1.65345 8.86915C1.81983 9.05497 2.01811 9.20252 2.23677 9.30324C2.45543 9.40395 2.6901 9.45582 2.92713 9.45582C3.16417 9.45582 3.39884 9.40395 3.6175 9.30324C3.83616 9.20252 4.03444 9.05497 4.20082 8.86915C4.36721 8.68334 4.49837 8.46297 4.58668 8.22086C4.67499 7.97876 4.71869 7.71975 4.71523 7.45889V5.387C4.71523 5.22075 4.77523 5.06131 4.88204 4.94376C4.98885 4.8262 5.1337 4.76016 5.28475 4.76016C5.4358 4.76016 5.58066 4.8262 5.68746 4.94376C5.79427 5.06131 5.85427 5.22075 5.85427 5.387V7.45889C5.85336 8.31297 5.5447 9.1318 4.99599 9.73573C4.44728 10.3397 3.70332 10.6794 2.92732 10.6804Z" fill="black" fill-opacity="0.75"/>
<path d="M7.64253 10.6804C6.86644 10.6794 6.12239 10.3396 5.5736 9.73564C5.02482 9.13163 4.71611 8.3127 4.71521 7.4585V5.38702C4.71521 5.22078 4.77521 5.06134 4.88202 4.94379C4.98882 4.82623 5.13368 4.76019 5.28473 4.76019C5.43577 4.76019 5.58063 4.82623 5.68744 4.94379C5.79424 5.06134 5.85425 5.22078 5.85425 5.38702V7.45891C5.85079 7.71977 5.89449 7.97879 5.9828 8.22089C6.07111 8.463 6.20227 8.68337 6.36866 8.86918C6.53504 9.055 6.73332 9.20255 6.95198 9.30327C7.17064 9.40398 7.40531 9.45585 7.64234 9.45585C7.87938 9.45585 8.11405 9.40398 8.33271 9.30327C8.55137 9.20255 8.74965 9.055 8.91603 8.86918C9.08242 8.68337 9.21358 8.463 9.30189 8.22089C9.3902 7.97879 9.4339 7.71977 9.43044 7.45891V5.38702C9.43044 5.22078 9.49045 5.06134 9.59725 4.94379C9.70406 4.82623 9.84891 4.76019 9.99996 4.76019C10.151 4.76019 10.2959 4.82623 10.4027 4.94379C10.5095 5.06134 10.5695 5.22078 10.5695 5.38702V7.45891C10.5686 8.313 10.2599 9.13183 9.7112 9.73576C9.16249 10.3397 8.41853 10.6794 7.64253 10.6804Z" fill="black" fill-opacity="0.75"/>
<path d="M12.3575 10.6804C11.5814 10.6794 10.8374 10.3396 10.2887 9.73561C9.73997 9.13159 9.43135 8.31266 9.43054 7.4585V5.38702C9.43054 5.22078 9.49054 5.06134 9.59735 4.94379C9.70416 4.82623 9.84901 4.76019 10.0001 4.76019C10.1511 4.76019 10.296 4.82623 10.4028 4.94379C10.5096 5.06134 10.5696 5.22078 10.5696 5.38702V7.45891C10.5661 7.71977 10.6098 7.97879 10.6981 8.22089C10.7864 8.463 10.9176 8.68337 11.084 8.86918C11.2504 9.055 11.4487 9.20255 11.6673 9.30327C11.886 9.40398 12.1206 9.45585 12.3577 9.45585C12.5947 9.45585 12.8294 9.40398 13.048 9.30327C13.2667 9.20255 13.465 9.055 13.6314 8.86918C13.7977 8.68337 13.9289 8.463 14.0172 8.22089C14.1055 7.97879 14.1492 7.71977 14.1458 7.45891V5.38702C14.1458 5.22078 14.2058 5.06134 14.3126 4.94379C14.4194 4.82623 14.5642 4.76019 14.7153 4.76019C14.8663 4.76019 15.0112 4.82623 15.118 4.94379C15.2248 5.06134 15.2848 5.22078 15.2848 5.38702V7.45891C15.2838 8.31304 14.9751 9.13186 14.4263 9.73578C13.8775 10.3397 13.1335 10.6794 12.3575 10.6804Z" fill="black" fill-opacity="0.75"/>
<path d="M17.0727 10.6804C16.2966 10.6794 15.5526 10.3396 15.0039 9.73561C14.4552 9.13159 14.1466 8.31266 14.1458 7.4585V5.38702C14.1458 5.22078 14.2058 5.06134 14.3126 4.94379C14.4194 4.82623 14.5642 4.76019 14.7153 4.76019C14.8663 4.76019 15.0112 4.82623 15.118 4.94379C15.2248 5.06134 15.2848 5.22078 15.2848 5.38702V7.45891C15.2813 7.71977 15.325 7.97879 15.4133 8.22089C15.5017 8.463 15.6328 8.68337 15.7992 8.86918C15.9656 9.055 16.1639 9.20255 16.3825 9.30327C16.6012 9.40398 16.8359 9.45585 17.0729 9.45585C17.3099 9.45585 17.5446 9.40398 17.7632 9.30327C17.9819 9.20255 18.1802 9.055 18.3466 8.86918C18.513 8.68337 18.6441 8.463 18.7324 8.22089C18.8207 7.97879 18.8644 7.71977 18.861 7.45891V5.38702C18.861 5.22078 18.921 5.06134 19.0278 4.94379C19.1346 4.82623 19.2795 4.76019 19.4305 4.76019C19.5815 4.76019 19.7264 4.82623 19.8332 4.94379C19.94 5.06134 20 5.22078 20 5.38702V7.45891C19.999 8.31304 19.6903 9.13186 19.1415 9.73578C18.5927 10.3397 17.8487 10.6794 17.0727 10.6804Z" fill="black" fill-opacity="0.75"/>
<path d="M14.7148 6.01385C14.5924 6.01381 14.4733 5.97038 14.3751 5.88999C14.2769 5.8096 14.2048 5.69654 14.1696 5.56754L12.9759 1.19852C12.9323 1.03931 12.948 0.867583 13.0195 0.721111C13.091 0.574639 13.2124 0.465422 13.3571 0.417488C13.5017 0.369554 13.6578 0.386828 13.7908 0.465511C13.9239 0.544193 14.0231 0.677839 14.0667 0.837048L15.2604 5.20607C15.3039 5.365 15.2884 5.53644 15.2172 5.68278C15.146 5.82912 15.025 5.93841 14.8807 5.98668C14.827 6.00485 14.771 6.01401 14.7148 6.01385ZM5.2851 6.01385C5.2294 6.01398 5.17399 6.00497 5.1207 5.9871C4.9764 5.93883 4.85539 5.82954 4.78421 5.6832C4.71304 5.53686 4.6975 5.36542 4.74102 5.20649L5.93321 0.837048C5.97676 0.677839 6.07599 0.544193 6.20907 0.465511C6.27497 0.426551 6.34719 0.402258 6.42161 0.394018C6.49604 0.385778 6.57121 0.393753 6.64283 0.417488C6.71446 0.441223 6.78113 0.480252 6.83905 0.532348C6.89697 0.584443 6.945 0.648585 6.9804 0.721111C7.01579 0.793636 7.03787 0.873126 7.04535 0.95504C7.05284 1.03695 7.04559 1.11969 7.02403 1.19852L5.83032 5.56712C5.79514 5.6962 5.7231 5.80935 5.6249 5.88982C5.52669 5.97029 5.40753 6.01378 5.2851 6.01385ZM9.99995 6.01385C9.84891 6.01385 9.70405 5.9478 9.59724 5.83025C9.49044 5.7127 9.43043 5.55326 9.43043 5.38701V1.01799C9.43043 0.851747 9.49044 0.69231 9.59724 0.574756C9.70405 0.457202 9.84891 0.391161 9.99995 0.391161C10.151 0.391161 10.2959 0.457202 10.4027 0.574756C10.5095 0.69231 10.5695 0.851747 10.5695 1.01799V5.38701C10.5695 5.55326 10.5095 5.7127 10.4027 5.83025C10.2959 5.9478 10.151 6.01385 9.99995 6.01385ZM9.99995 21.5823H1.52704C1.37599 21.5823 1.23113 21.5162 1.12433 21.3987C1.01752 21.2811 0.95752 21.1217 0.95752 20.9554V9.54291C0.95752 9.37666 1.01752 9.21723 1.12433 9.09967C1.23113 8.98212 1.37599 8.91608 1.52704 8.91608C1.67808 8.91608 1.82294 8.98212 1.92975 9.09967C2.03655 9.21723 2.09656 9.37666 2.09656 9.54291V20.3286H9.99995C10.151 20.3286 10.2959 20.3946 10.4027 20.5122C10.5095 20.6298 10.5695 20.7892 10.5695 20.9554C10.5695 21.1217 10.5095 21.2811 10.4027 21.3987C10.2959 21.5162 10.151 21.5823 9.99995 21.5823Z" fill="black" fill-opacity="0.75"/>
<path d="M18.473 21.5823H10.0001C9.84901 21.5823 9.70416 21.5162 9.59735 21.3987C9.49054 21.2811 9.43054 21.1217 9.43054 20.9554C9.43054 20.7892 9.49054 20.6297 9.59735 20.5122C9.70416 20.3946 9.84901 20.3286 10.0001 20.3286H17.9035V9.54291C17.9035 9.37666 17.9635 9.21723 18.0703 9.09967C18.1771 8.98212 18.3219 8.91608 18.473 8.91608C18.624 8.91608 18.7689 8.98212 18.8757 9.09967C18.9825 9.21723 19.0425 9.37666 19.0425 9.54291V20.9554C19.0425 21.1217 18.9825 21.2811 18.8757 21.3987C18.7689 21.5162 18.624 21.5823 18.473 21.5823Z" fill="black" fill-opacity="0.75"/>
<path d="M14.511 21.4256C14.36 21.4256 14.2151 21.3595 14.1083 21.242C14.0015 21.1244 13.9415 20.965 13.9415 20.7987V14.1689H6.05859V20.7536C6.05859 20.9199 5.99859 21.0793 5.89178 21.1968C5.78498 21.3144 5.64012 21.3804 5.48907 21.3804C5.33803 21.3804 5.19317 21.3144 5.08636 21.1968C4.97956 21.0793 4.91956 20.9199 4.91956 20.7536V13.5421C4.91956 13.3759 4.97956 13.2164 5.08636 13.0989C5.19317 12.9813 5.33803 12.9153 5.48907 12.9153H14.511C14.6621 12.9153 14.8069 12.9813 14.9137 13.0989C15.0205 13.2164 15.0805 13.3759 15.0805 13.5421V20.7987C15.0805 20.965 15.0205 21.1244 14.9137 21.242C14.8069 21.3595 14.6621 21.4256 14.511 21.4256Z" fill="black" fill-opacity="0.75"/>
</svg>
