<svg width="20" height="22" viewBox="0 0 20 22" fill="none" xmlns="http://www.w3.org/2000/svg">
<path d="M10.0002 6.01383H0.569769C0.470045 6.01369 0.372102 5.98473 0.285738 5.92985C0.199374 5.87497 0.127617 5.79609 0.0776439 5.70111C0.0276709 5.60613 0.00123416 5.49836 0.000978435 5.3886C0.000722713 5.27884 0.0266569 5.17093 0.0761867 5.07567L2.34325 0.706649C2.39303 0.610911 2.46487 0.531324 2.55154 0.475927C2.6382 0.42053 2.73661 0.391284 2.83683 0.391144H10.0002C10.1513 0.391144 10.2961 0.457185 10.4029 0.574739C10.5097 0.692292 10.5698 0.85173 10.5698 1.01798C10.5698 1.18422 10.5097 1.34366 10.4029 1.46121C10.2961 1.57877 10.1513 1.64481 10.0002 1.64481H3.16829L1.55124 4.76016H10.0002C10.1513 4.76016 10.2961 4.8262 10.4029 4.94376C10.5097 5.06131 10.5698 5.22075 10.5698 5.387C10.5698 5.55324 10.5097 5.71268 10.4029 5.83023C10.2961 5.94779 10.1513 6.01383 10.0002 6.01383Z" fill="white"/>
<path d="M19.4304 6.01383H9.99998C9.84894 6.01383 9.70408 5.94779 9.59727 5.83023C9.49047 5.71268 9.43046 5.55324 9.43046 5.387C9.43046 5.22075 9.49047 5.06131 9.59727 4.94376C9.70408 4.8262 9.84894 4.76016 9.99998 4.76016H18.449L16.8319 1.64481H9.99998C9.84894 1.64481 9.70408 1.57877 9.59727 1.46121C9.49047 1.34366 9.43046 1.18422 9.43046 1.01798C9.43046 0.85173 9.49047 0.692292 9.59727 0.574739C9.70408 0.457185 9.84894 0.391144 9.99998 0.391144H17.1622C17.2625 0.391284 17.3609 0.42053 17.4475 0.475927C17.5342 0.531324 17.6061 0.610911 17.6558 0.706649L19.9248 5.07525C19.9743 5.17052 20.0003 5.27843 20 5.38819C19.9997 5.49795 19.9733 5.60571 19.9233 5.70069C19.8734 5.79568 19.8016 5.87455 19.7152 5.92943C19.6289 5.98431 19.5309 6.01327 19.4312 6.01341L19.4304 6.01383ZM2.92732 10.6804C2.15123 10.6794 1.40718 10.3396 0.858392 9.73561C0.309608 9.1316 0.000904367 8.31267 0 7.45847V5.387C4.50151e-09 5.22075 0.0600026 5.06131 0.166808 4.94376C0.273613 4.8262 0.418473 4.76016 0.569518 4.76016C0.720564 4.76016 0.865423 4.8262 0.972229 4.94376C1.07903 5.06131 1.13904 5.22075 1.13904 5.387V7.45889C1.13558 7.71975 1.17928 7.97876 1.26759 8.22086C1.3559 8.46297 1.48706 8.68334 1.65345 8.86915C1.81983 9.05497 2.01811 9.20252 2.23677 9.30324C2.45543 9.40395 2.6901 9.45582 2.92713 9.45582C3.16417 9.45582 3.39884 9.40395 3.6175 9.30324C3.83616 9.20252 4.03444 9.05497 4.20082 8.86915C4.36721 8.68334 4.49837 8.46297 4.58668 8.22086C4.67499 7.97876 4.71869 7.71975 4.71523 7.45889V5.387C4.71523 5.22075 4.77523 5.06131 4.88204 4.94376C4.98885 4.8262 5.1337 4.76016 5.28475 4.76016C5.4358 4.76016 5.58066 4.8262 5.68746 4.94376C5.79427 5.06131 5.85427 5.22075 5.85427 5.387V7.45889C5.85336 8.31297 5.5447 9.1318 4.99599 9.73573C4.44728 10.3397 3.70332 10.6794 2.92732 10.6804Z" fill="white"/>
<path d="M7.64266 10.6804C6.86656 10.6794 6.12251 10.3396 5.57372 9.73564C5.02494 9.13163 4.71624 8.3127 4.71533 7.4585V5.38702C4.71533 5.22078 4.77533 5.06134 4.88214 4.94379C4.98895 4.82623 5.1338 4.76019 5.28485 4.76019C5.4359 4.76019 5.58076 4.82623 5.68756 4.94379C5.79437 5.06134 5.85437 5.22078 5.85437 5.38702V7.45891C5.85091 7.71977 5.89461 7.97879 5.98292 8.22089C6.07123 8.463 6.20239 8.68337 6.36878 8.86918C6.53516 9.055 6.73345 9.20255 6.9521 9.30327C7.17076 9.40398 7.40543 9.45585 7.64247 9.45585C7.8795 9.45585 8.11417 9.40398 8.33283 9.30327C8.55149 9.20255 8.74977 9.055 8.91616 8.86918C9.08254 8.68337 9.2137 8.463 9.30201 8.22089C9.39032 7.97879 9.43402 7.71977 9.43056 7.45891V5.38702C9.43056 5.22078 9.49057 5.06134 9.59737 4.94379C9.70418 4.82623 9.84904 4.76019 10.0001 4.76019C10.1511 4.76019 10.296 4.82623 10.4028 4.94379C10.5096 5.06134 10.5696 5.22078 10.5696 5.38702V7.45891C10.5687 8.313 10.26 9.13183 9.71132 9.73576C9.16261 10.3397 8.41865 10.6794 7.64266 10.6804Z" fill="white"/>
<path d="M12.3576 10.6804C11.5815 10.6794 10.8375 10.3396 10.2888 9.73561C9.74009 9.13159 9.43147 8.31266 9.43066 7.4585V5.38702C9.43066 5.22078 9.49067 5.06134 9.59747 4.94379C9.70428 4.82623 9.84914 4.76019 10.0002 4.76019C10.1512 4.76019 10.2961 4.82623 10.4029 4.94379C10.5097 5.06134 10.5697 5.22078 10.5697 5.38702V7.45891C10.5662 7.71977 10.6099 7.97879 10.6983 8.22089C10.7866 8.463 10.9177 8.68337 11.0841 8.86918C11.2505 9.055 11.4488 9.20255 11.6674 9.30327C11.8861 9.40398 12.1208 9.45585 12.3578 9.45585C12.5948 9.45585 12.8295 9.40398 13.0482 9.30327C13.2668 9.20255 13.4651 9.055 13.6315 8.86918C13.7979 8.68337 13.929 8.463 14.0173 8.22089C14.1057 7.97879 14.1493 7.71977 14.1459 7.45891V5.38702C14.1459 5.22078 14.2059 5.06134 14.3127 4.94379C14.4195 4.82623 14.5644 4.76019 14.7154 4.76019C14.8665 4.76019 15.0113 4.82623 15.1181 4.94379C15.2249 5.06134 15.2849 5.22078 15.2849 5.38702V7.45891C15.2839 8.31304 14.9752 9.13186 14.4264 9.73578C13.8776 10.3397 13.1336 10.6794 12.3576 10.6804Z" fill="white"/>
<path d="M17.0725 10.6804C16.2964 10.6794 15.5524 10.3396 15.0037 9.73561C14.4549 9.13159 14.1463 8.31266 14.1455 7.4585V5.38702C14.1455 5.22078 14.2055 5.06134 14.3123 4.94379C14.4191 4.82623 14.564 4.76019 14.715 4.76019C14.8661 4.76019 15.0109 4.82623 15.1177 4.94379C15.2245 5.06134 15.2845 5.22078 15.2845 5.38702V7.45891C15.2811 7.71977 15.3248 7.97879 15.4131 8.22089C15.5014 8.463 15.6326 8.68337 15.799 8.86918C15.9653 9.055 16.1636 9.20255 16.3823 9.30327C16.6009 9.40398 16.8356 9.45585 17.0726 9.45585C17.3097 9.45585 17.5443 9.40398 17.763 9.30327C17.9817 9.20255 18.18 9.055 18.3463 8.86918C18.5127 8.68337 18.6439 8.463 18.7322 8.22089C18.8205 7.97879 18.8642 7.71977 18.8607 7.45891V5.38702C18.8607 5.22078 18.9207 5.06134 19.0275 4.94379C19.1344 4.82623 19.2792 4.76019 19.4303 4.76019C19.5813 4.76019 19.7262 4.82623 19.833 4.94379C19.9398 5.06134 19.9998 5.22078 19.9998 5.38702V7.45891C19.9988 8.31304 19.69 9.13186 19.1413 9.73578C18.5925 10.3397 17.8485 10.6794 17.0725 10.6804Z" fill="white"/>
<path d="M14.7148 6.01385C14.5924 6.01381 14.4733 5.97038 14.3751 5.88999C14.2769 5.8096 14.2048 5.69654 14.1696 5.56754L12.9759 1.19852C12.9323 1.03931 12.948 0.867583 13.0195 0.721111C13.091 0.574639 13.2124 0.465422 13.3571 0.417488C13.5017 0.369554 13.6578 0.386828 13.7908 0.465511C13.9239 0.544193 14.0231 0.677839 14.0667 0.837048L15.2604 5.20607C15.3039 5.365 15.2884 5.53644 15.2172 5.68278C15.146 5.82912 15.025 5.93841 14.8807 5.98668C14.827 6.00485 14.771 6.01401 14.7148 6.01385ZM5.2851 6.01385C5.2294 6.01398 5.17399 6.00497 5.1207 5.9871C4.9764 5.93883 4.85539 5.82954 4.78421 5.6832C4.71304 5.53686 4.6975 5.36542 4.74102 5.20649L5.93321 0.837048C5.97676 0.677839 6.07599 0.544193 6.20907 0.465511C6.27497 0.426551 6.34719 0.402258 6.42161 0.394018C6.49604 0.385778 6.57121 0.393753 6.64283 0.417488C6.71446 0.441223 6.78113 0.480252 6.83905 0.532348C6.89697 0.584443 6.945 0.648585 6.9804 0.721111C7.01579 0.793636 7.03787 0.873126 7.04535 0.95504C7.05284 1.03695 7.04559 1.11969 7.02403 1.19852L5.83032 5.56712C5.79514 5.6962 5.7231 5.80935 5.6249 5.88982C5.52669 5.97029 5.40753 6.01378 5.2851 6.01385ZM9.99995 6.01385C9.84891 6.01385 9.70405 5.9478 9.59724 5.83025C9.49044 5.7127 9.43043 5.55326 9.43043 5.38701V1.01799C9.43043 0.851747 9.49044 0.69231 9.59724 0.574756C9.70405 0.457202 9.84891 0.391161 9.99995 0.391161C10.151 0.391161 10.2959 0.457202 10.4027 0.574756C10.5095 0.69231 10.5695 0.851747 10.5695 1.01799V5.38701C10.5695 5.55326 10.5095 5.7127 10.4027 5.83025C10.2959 5.9478 10.151 6.01385 9.99995 6.01385ZM9.99995 21.5823H1.52704C1.37599 21.5823 1.23113 21.5162 1.12433 21.3987C1.01752 21.2811 0.95752 21.1217 0.95752 20.9554V9.54291C0.95752 9.37666 1.01752 9.21723 1.12433 9.09967C1.23113 8.98212 1.37599 8.91608 1.52704 8.91608C1.67808 8.91608 1.82294 8.98212 1.92975 9.09967C2.03655 9.21723 2.09656 9.37666 2.09656 9.54291V20.3286H9.99995C10.151 20.3286 10.2959 20.3946 10.4027 20.5122C10.5095 20.6298 10.5695 20.7892 10.5695 20.9554C10.5695 21.1217 10.5095 21.2811 10.4027 21.3987C10.2959 21.5162 10.151 21.5823 9.99995 21.5823Z" fill="white"/>
<path d="M18.4731 21.5823H10.0002C9.84914 21.5823 9.70428 21.5162 9.59747 21.3987C9.49067 21.2811 9.43066 21.1217 9.43066 20.9554C9.43066 20.7892 9.49067 20.6297 9.59747 20.5122C9.70428 20.3946 9.84914 20.3286 10.0002 20.3286H17.9036V9.54291C17.9036 9.37666 17.9636 9.21723 18.0704 9.09967C18.1772 8.98212 18.3221 8.91608 18.4731 8.91608C18.6241 8.91608 18.769 8.98212 18.8758 9.09967C18.9826 9.21723 19.0426 9.37666 19.0426 9.54291V20.9554C19.0426 21.1217 18.9826 21.2811 18.8758 21.3987C18.769 21.5162 18.6241 21.5823 18.4731 21.5823Z" fill="white"/>
<path d="M14.5109 21.4256C14.3598 21.4256 14.215 21.3595 14.1082 21.242C14.0014 21.1244 13.9414 20.965 13.9414 20.7987V14.1689H6.05847V20.7536C6.05847 20.9199 5.99847 21.0793 5.89166 21.1968C5.78486 21.3144 5.64 21.3804 5.48895 21.3804C5.33791 21.3804 5.19305 21.3144 5.08624 21.1968C4.97944 21.0793 4.91943 20.9199 4.91943 20.7536V13.5421C4.91943 13.3759 4.97944 13.2164 5.08624 13.0989C5.19305 12.9813 5.33791 12.9153 5.48895 12.9153H14.5109C14.6619 12.9153 14.8068 12.9813 14.9136 13.0989C15.0204 13.2164 15.0804 13.3759 15.0804 13.5421V20.7987C15.0804 20.965 15.0204 21.1244 14.9136 21.242C14.8068 21.3595 14.6619 21.4256 14.5109 21.4256Z" fill="white"/>
</svg>
