<svg width="15" height="15" viewBox="0 0 15 15" fill="none" xmlns="http://www.w3.org/2000/svg">
<path d="M8.82202 7.50205L14.714 1.6098C14.8035 1.52343 14.8748 1.42011 14.9239 1.30588C14.9729 1.19164 14.9988 1.06878 14.9998 0.944454C15.0009 0.82013 14.9772 0.696836 14.9302 0.581766C14.8831 0.466696 14.8136 0.362154 14.7256 0.274241C14.6377 0.186328 14.5332 0.116803 14.4181 0.0697241C14.303 0.0226453 14.1798 -0.00104499 14.0554 3.53526e-05C13.9311 0.00111569 13.8082 0.0269452 13.694 0.0760167C13.5798 0.125088 13.4765 0.196419 13.3901 0.285847L7.49783 6.17786L1.60582 0.285847C1.42959 0.113483 1.19249 0.017572 0.945978 0.0189296C0.69947 0.0202871 0.463442 0.118803 0.289117 0.293098C0.114791 0.467393 0.0162335 0.703403 0.0148324 0.949911C0.0134312 1.19642 0.1093 1.43353 0.281633 1.6098L6.17388 7.50205L0.281633 13.3943C0.193097 13.4809 0.122619 13.5842 0.0742786 13.6982C0.0259383 13.8122 0.000696203 13.9347 1.41997e-05 14.0585C-0.000667804 14.1824 0.0232239 14.3051 0.0703055 14.4196C0.117387 14.5342 0.186723 14.6383 0.274299 14.7258C0.361876 14.8134 0.465953 14.8827 0.580503 14.9298C0.695053 14.9768 0.817801 15.0007 0.94164 15C1.06548 14.9993 1.18795 14.974 1.30195 14.9257C1.41596 14.8773 1.51924 14.8068 1.60582 14.7182L7.49783 8.82623L13.3901 14.7182C13.5729 14.9011 13.8126 14.9926 14.0521 14.9926C14.2915 14.9926 14.5315 14.9011 14.714 14.7182C14.8896 14.5427 14.9882 14.3045 14.9882 14.0563C14.9882 13.808 14.8896 13.5699 14.714 13.3943L8.82202 7.50205Z" fill="white"/>
</svg>
