<svg width="15" height="15" viewBox="0 0 15 15" fill="none" xmlns="http://www.w3.org/2000/svg">
<path d="M14.6224 3.91036L11.0896 0.377603C10.9697 0.257136 10.827 0.161719 10.6698 0.0968974C10.5126 0.0320762 10.3441 -0.000855472 10.1741 1.68885e-05H1.2931C0.95015 1.68885e-05 0.621244 0.136254 0.378741 0.378758C0.136237 0.621261 0 0.950167 0 1.29312V13.7069C0 14.0499 0.136237 14.3788 0.378741 14.6213C0.621244 14.8638 0.95015 15 1.2931 15H13.7069C14.0498 15 14.3787 14.8638 14.6212 14.6213C14.8637 14.3788 15 14.0499 15 13.7069V4.82587C15.0006 4.65591 14.9675 4.4875 14.9027 4.33037C14.8379 4.17324 14.7426 4.0305 14.6224 3.91036ZM3.10345 0.517258H8.79309V3.87932C8.79309 3.94791 8.76585 4.01369 8.71735 4.0622C8.66885 4.1107 8.60306 4.13794 8.53447 4.13794H3.36207C3.29347 4.13794 3.22769 4.1107 3.17919 4.0622C3.13069 4.01369 3.10345 3.94791 3.10345 3.87932V0.517258ZM14.4827 13.7069C14.4827 13.9127 14.401 14.11 14.2555 14.2555C14.11 14.401 13.9127 14.4828 13.7069 14.4828H1.2931C1.08733 14.4828 0.889988 14.401 0.744485 14.2555C0.598983 14.11 0.517241 13.9127 0.517241 13.7069V1.29312C0.517241 1.08735 0.598983 0.890004 0.744485 0.744502C0.889988 0.599 1.08733 0.517258 1.2931 0.517258H2.5862V3.87932C2.5862 4.08509 2.66795 4.28244 2.81345 4.42794C2.95895 4.57344 3.15629 4.65518 3.36207 4.65518H8.53447C8.74024 4.65518 8.93759 4.57344 9.08309 4.42794C9.22859 4.28244 9.31034 4.08509 9.31034 3.87932V0.517258H10.1741C10.3797 0.518002 10.5767 0.599778 10.7224 0.744844L14.2552 4.2776C14.3275 4.3494 14.3848 4.43483 14.4239 4.52894C14.4629 4.62305 14.4829 4.72398 14.4827 4.82587V13.7069Z" fill="white"/>
<path d="M7.50047 1.03447H6.98323C6.8404 1.03447 6.72461 1.15026 6.72461 1.29309V2.84481C6.72461 2.98764 6.8404 3.10343 6.98323 3.10343H7.50047C7.6433 3.10343 7.75909 2.98764 7.75909 2.84481V1.29309C7.75909 1.15026 7.6433 1.03447 7.50047 1.03447Z" fill="white"/>
<path d="M12.1555 6.20689H2.8452C2.63943 6.20689 2.44208 6.28864 2.29658 6.43414C2.15108 6.57964 2.06934 6.77698 2.06934 6.98275V12.6724C2.06934 12.8782 2.15108 13.0755 2.29658 13.221C2.44208 13.3665 2.63943 13.4483 2.8452 13.4483H12.1555C12.3613 13.4483 12.5586 13.3665 12.7041 13.221C12.8497 13.0755 12.9314 12.8782 12.9314 12.6724V6.98275C12.9314 6.77698 12.8497 6.57964 12.7041 6.43414C12.5586 6.28864 12.3613 6.20689 12.1555 6.20689ZM12.4142 12.6724C12.4142 12.741 12.3869 12.8068 12.3384 12.8553C12.2899 12.9038 12.2241 12.931 12.1555 12.931H2.8452C2.77661 12.931 2.71083 12.9038 2.66232 12.8553C2.61382 12.8068 2.58658 12.741 2.58658 12.6724V6.98275C2.58658 6.91416 2.61382 6.84838 2.66232 6.79988C2.71083 6.75138 2.77661 6.72413 2.8452 6.72413H12.1555C12.2241 6.72413 12.2899 6.75138 12.3384 6.79988C12.3869 6.84838 12.4142 6.91416 12.4142 6.98275V12.6724Z" fill="white"/>
<path d="M10.086 8.27585H5.94804C5.87945 8.27585 5.81367 8.3031 5.76517 8.3516C5.71667 8.4001 5.68942 8.46588 5.68942 8.53447C5.68942 8.60306 5.71667 8.66884 5.76517 8.71734C5.81367 8.76584 5.87945 8.79309 5.94804 8.79309H10.086C10.1546 8.79309 10.2203 8.76584 10.2688 8.71734C10.3173 8.66884 10.3446 8.60306 10.3446 8.53447C10.3446 8.46588 10.3173 8.4001 10.2688 8.3516C10.2203 8.3031 10.1546 8.27585 10.086 8.27585ZM10.086 9.82757H4.39632C4.32773 9.82757 4.26194 9.85482 4.21344 9.90332C4.16494 9.95182 4.1377 10.0176 4.1377 10.0862C4.1377 10.1548 4.16494 10.2206 4.21344 10.2691C4.26194 10.3176 4.32773 10.3448 4.39632 10.3448H10.086C10.1546 10.3448 10.2203 10.3176 10.2688 10.2691C10.3173 10.2206 10.3446 10.1548 10.3446 10.0862C10.3446 10.0176 10.3173 9.95182 10.2688 9.90332C10.2203 9.85482 10.1546 9.82757 10.086 9.82757ZM10.086 11.3793H4.39632C4.32773 11.3793 4.26194 11.4065 4.21344 11.455C4.16494 11.5035 4.1377 11.5693 4.1377 11.6379C4.1377 11.7065 4.16494 11.7723 4.21344 11.8208C4.26194 11.8693 4.32773 11.8965 4.39632 11.8965H10.086C10.1546 11.8965 10.2203 11.8693 10.2688 11.8208C10.3173 11.7723 10.3446 11.7065 10.3446 11.6379C10.3446 11.5693 10.3173 11.5035 10.2688 11.455C10.2203 11.4065 10.1546 11.3793 10.086 11.3793Z" fill="white"/>
</svg>
