<svg width="15" height="15" viewBox="0 0 15 15" fill="none" xmlns="http://www.w3.org/2000/svg">
<path d="M3.52609 6.33371C4.0822 6.33371 4.62582 6.16881 5.08821 5.85985C5.5506 5.55089 5.91099 5.11176 6.1238 4.59798C6.33662 4.0842 6.3923 3.51885 6.28381 2.97343C6.17532 2.428 5.90752 1.927 5.51429 1.53377C5.12107 1.14054 4.62006 0.872749 4.07464 0.764258C3.52921 0.655766 2.96386 0.711448 2.45009 0.924262C1.93631 1.13708 1.49717 1.49746 1.18821 1.95985C0.879256 2.42224 0.71435 2.96586 0.71435 3.52197C0.715164 4.26744 1.01166 4.98215 1.53879 5.50928C2.06592 6.0364 2.78062 6.3329 3.52609 6.33371ZM3.52609 2.58473C3.71146 2.58473 3.89267 2.63969 4.0468 2.74268C4.20093 2.84567 4.32106 2.99204 4.392 3.1633C4.46293 3.33456 4.48149 3.52301 4.44533 3.70482C4.40917 3.88663 4.3199 4.05363 4.18883 4.18471C4.05775 4.31578 3.89075 4.40505 3.70894 4.44121C3.52713 4.47738 3.33868 4.45881 3.16742 4.38788C2.99616 4.31694 2.84979 4.19681 2.7468 4.04268C2.64381 3.88855 2.58885 3.70734 2.58885 3.52197C2.58901 3.27345 2.68781 3.03515 2.86354 2.85942C3.03927 2.68369 3.27757 2.58489 3.52609 2.58473ZM11.4781 8.66219C10.9219 8.66219 10.3783 8.8271 9.91593 9.13606C9.45355 9.44502 9.09316 9.88415 8.88034 10.3979C8.66753 10.9117 8.61185 11.4771 8.72034 12.0225C8.82883 12.5679 9.09662 13.0689 9.48985 13.4621C9.88308 13.8554 10.3841 14.1232 10.9295 14.2317C11.4749 14.3401 12.0403 14.2845 12.5541 14.0716C13.0678 13.8588 13.507 13.4984 13.8159 13.0361C14.1249 12.5737 14.2898 12.03 14.2898 11.4739C14.289 10.7285 13.9925 10.0138 13.4654 9.48663C12.9382 8.95951 12.2235 8.66301 11.4781 8.66219ZM11.4781 12.4112C11.2927 12.4112 11.1115 12.3562 10.9573 12.2532C10.8032 12.1502 10.6831 12.0039 10.6122 11.8326C10.5412 11.6613 10.5227 11.4729 10.5588 11.2911C10.595 11.1093 10.6842 10.9423 10.8153 10.8112C10.9464 10.6801 11.1134 10.5909 11.2952 10.5547C11.477 10.5185 11.6655 10.5371 11.8367 10.608C12.008 10.679 12.1544 10.7991 12.2573 10.9532C12.3603 11.1074 12.4153 11.2886 12.4153 11.4739C12.4151 11.7225 12.3163 11.9608 12.1406 12.1365C11.9649 12.3122 11.7266 12.411 11.4781 12.4112ZM14.7254 0.274589C14.6384 0.187537 14.5351 0.11848 14.4214 0.0713651C14.3077 0.0242501 14.1859 0 14.0628 0C13.9397 0 13.8178 0.0242501 13.7041 0.0713651C13.5904 0.11848 13.4871 0.187537 13.4001 0.274589L0.278652 13.3961C0.190733 13.4829 0.120852 13.5862 0.0730306 13.7002C0.025209 13.8141 0.000390741 13.9364 4.57696e-06 14.0599C-0.000381587 14.1835 0.0236718 14.3059 0.0707804 14.4201C0.117889 14.5344 0.187123 14.6382 0.274497 14.7255C0.361872 14.8129 0.465662 14.8821 0.579895 14.9292C0.694129 14.9763 0.81655 15.0004 0.940113 15C1.06368 14.9996 1.18594 14.9748 1.29987 14.927C1.41381 14.8791 1.51716 14.8092 1.60398 14.7213L14.7254 1.59986C14.8125 1.51285 14.8815 1.40955 14.9286 1.29585C14.9758 1.18216 15 1.06029 15 0.937223C15 0.814152 14.9758 0.692288 14.9286 0.578591C14.8815 0.464894 14.8125 0.361593 14.7254 0.274589Z" fill="#002D62"/>
</svg>
