<svg width="20" height="23" viewBox="0 0 20 23" fill="none" xmlns="http://www.w3.org/2000/svg">
<path d="M6.11111 0.9375H2.77778C2.04107 0.9375 1.33453 1.25961 0.813592 1.83297C0.292658 2.40633 0 3.18397 0 3.99482C0 4.80567 0.292658 5.58331 0.813592 6.15667C1.33453 6.73003 2.04107 7.05214 2.77778 7.05214H6.11111C6.84782 7.05214 7.55436 6.73003 8.0753 6.15667C8.59623 5.58331 8.88889 4.80567 8.88889 3.99482C8.88889 3.18397 8.59623 2.40633 8.0753 1.83297C7.55436 1.25961 6.84782 0.9375 6.11111 0.9375ZM6.11111 5.82921H2.77778C2.33575 5.82921 1.91183 5.63595 1.59927 5.29193C1.28671 4.94792 1.11111 4.48133 1.11111 3.99482C1.11111 3.50831 1.28671 3.04172 1.59927 2.69771C1.91183 2.35369 2.33575 2.16043 2.77778 2.16043H6.11111C6.55314 2.16043 6.97706 2.35369 7.28962 2.69771C7.60218 3.04172 7.77778 3.50831 7.77778 3.99482C7.77778 4.48133 7.60218 4.94792 7.28962 5.29193C6.97706 5.63595 6.55314 5.82921 6.11111 5.82921ZM6.11111 9.498H2.77778C2.04107 9.498 1.33453 9.82011 0.813592 10.3935C0.292658 10.9668 0 11.7445 0 12.5553V19.8929C0 20.7037 0.292658 21.4814 0.813592 22.0547C1.33453 22.6281 2.04107 22.9502 2.77778 22.9502H6.11111C6.84782 22.9502 7.55436 22.6281 8.0753 22.0547C8.59623 21.4814 8.88889 20.7037 8.88889 19.8929V12.5553C8.88889 11.7445 8.59623 10.9668 8.0753 10.3935C7.55436 9.82011 6.84782 9.498 6.11111 9.498ZM7.77778 19.8929C7.77778 20.3794 7.60218 20.846 7.28962 21.19C6.97706 21.534 6.55314 21.7273 6.11111 21.7273H2.77778C2.33575 21.7273 1.91183 21.534 1.59927 21.19C1.28671 20.846 1.11111 20.3794 1.11111 19.8929V12.5553C1.11111 12.0688 1.28671 11.6022 1.59927 11.2582C1.91183 10.9142 2.33575 10.7209 2.77778 10.7209H6.11111C6.55314 10.7209 6.97706 10.9142 7.28962 11.2582C7.60218 11.6022 7.77778 12.0688 7.77778 12.5553V19.8929ZM17.2222 16.8356H13.8889C13.1522 16.8356 12.4456 17.1577 11.9247 17.731C11.4038 18.3044 11.1111 19.082 11.1111 19.8929C11.1111 20.7037 11.4038 21.4814 11.9247 22.0547C12.4456 22.6281 13.1522 22.9502 13.8889 22.9502H17.2222C17.9589 22.9502 18.6655 22.6281 19.1864 22.0547C19.7073 21.4814 20 20.7037 20 19.8929C20 19.082 19.7073 18.3044 19.1864 17.731C18.6655 17.1577 17.9589 16.8356 17.2222 16.8356ZM17.2222 21.7273H13.8889C13.4469 21.7273 13.0229 21.534 12.7104 21.19C12.3978 20.846 12.2222 20.3794 12.2222 19.8929C12.2222 19.4064 12.3978 18.9398 12.7104 18.5958C13.0229 18.2518 13.4469 18.0585 13.8889 18.0585H17.2222C17.6643 18.0585 18.0882 18.2518 18.4007 18.5958C18.7133 18.9398 18.8889 19.4064 18.8889 19.8929C18.8889 20.3794 18.7133 20.846 18.4007 21.19C18.0882 21.534 17.6643 21.7273 17.2222 21.7273ZM17.2222 0.9375H13.8889C13.1522 0.9375 12.4456 1.25961 11.9247 1.83297C11.4038 2.40633 11.1111 3.18397 11.1111 3.99482V11.3324C11.1111 12.1432 11.4038 12.9209 11.9247 13.4942C12.4456 14.0676 13.1522 14.3897 13.8889 14.3897H17.2222C17.9589 14.3897 18.6655 14.0676 19.1864 13.4942C19.7073 12.9209 20 12.1432 20 11.3324V3.99482C20 3.18397 19.7073 2.40633 19.1864 1.83297C18.6655 1.25961 17.9589 0.9375 17.2222 0.9375ZM18.8889 11.3324C18.8889 11.8189 18.7133 12.2855 18.4007 12.6295C18.0882 12.9735 17.6643 13.1668 17.2222 13.1668H13.8889C13.4469 13.1668 13.0229 12.9735 12.7104 12.6295C12.3978 12.2855 12.2222 11.8189 12.2222 11.3324V3.99482C12.2222 3.50831 12.3978 3.04172 12.7104 2.69771C13.0229 2.35369 13.4469 2.16043 13.8889 2.16043H17.2222C17.6643 2.16043 18.0882 2.35369 18.4007 2.69771C18.7133 3.04172 18.8889 3.50831 18.8889 3.99482V11.3324Z" fill="black" fill-opacity="0.75"/>
</svg>
