<svg width="26" height="25" viewBox="0 0 26 25" fill="none" xmlns="http://www.w3.org/2000/svg">
<path d="M25.0139 19.2141C24.9533 18.288 24.246 17.948 23.5642 17.6178C23.443 17.5592 23.318 17.4986 23.191 17.4224C22.5831 17.0912 22.0715 16.608 21.7061 16.02C21.3407 15.432 21.134 14.7594 21.1062 14.0677V8.49921C21.1062 3.81195 17.2493 0 12.5093 0C7.7693 0 3.91242 3.81195 3.91242 8.49921V14.0677C3.88669 14.7604 3.6816 15.4347 3.3172 16.0244C2.9528 16.6141 2.44158 17.0992 1.83353 17.4322C1.7202 17.4908 1.60688 17.5455 1.49356 17.6002C0.825345 17.9206 0.0692086 18.284 0.00473179 19.2141C-0.0139715 19.4813 0.0229023 19.7494 0.113027 20.0016C0.203151 20.2538 0.34457 20.4846 0.528361 20.6795C0.712099 20.8744 0.933746 21.0297 1.17969 21.1359C1.42564 21.2421 1.69069 21.2969 1.95857 21.2969H8.42579C8.52511 22.311 8.99822 23.2519 9.75304 23.9364C10.5079 24.6209 11.4904 25 12.5093 25C13.5283 25 14.5108 24.6209 15.2656 23.9364C16.0204 23.2519 16.4935 22.311 16.5928 21.2969H23.0601C23.3273 21.2963 23.5916 21.2413 23.8368 21.1351C24.0821 21.029 24.3031 20.8739 24.4864 20.6795C24.6709 20.485 24.813 20.2543 24.9038 20.0021C24.9946 19.7499 25.0321 19.4815 25.0139 19.2141ZM12.5093 24.2276C11.6965 24.2271 10.912 23.9284 10.3046 23.3883C9.69713 22.8482 9.30882 22.1041 9.21319 21.2969H15.8055C15.7098 22.1041 15.3215 22.8482 14.7141 23.3883C14.1066 23.9284 13.3222 24.2271 12.5093 24.2276ZM23.9158 20.1441C23.8068 20.262 23.6744 20.3559 23.527 20.4198C23.3797 20.4837 23.2207 20.5163 23.0601 20.5153H1.95857C1.79782 20.5157 1.63871 20.483 1.49114 20.4192C1.34356 20.3555 1.21067 20.2621 1.10073 20.1448C0.99078 20.0275 0.906129 19.8889 0.852032 19.7375C0.797936 19.5862 0.775551 19.4253 0.786269 19.2649C0.815576 18.8135 1.17704 18.6143 1.82962 18.3036C1.9488 18.2469 2.06994 18.1883 2.18913 18.1277C2.92647 17.7306 3.54619 17.1463 3.98591 16.4335C4.42563 15.7208 4.66984 14.9048 4.69395 14.0677V8.49921C4.69395 4.24374 8.19914 0.781537 12.5093 0.781537C16.8195 0.781537 20.3247 4.24374 20.3247 8.49921V14.0677C20.3486 14.9046 20.5925 15.7205 21.0319 16.4332C21.4713 17.1459 22.0906 17.7304 22.8276 18.1277C22.9604 18.1961 23.0933 18.2606 23.2183 18.3231C23.8787 18.6416 24.1952 18.8155 24.2285 19.2668C24.2391 19.4267 24.2168 19.587 24.163 19.7378C24.1092 19.8887 24.0251 20.027 23.9158 20.1441Z" fill="black"/>
</svg>
