<svg width="26" height="19" viewBox="0 0 26 19" fill="none" xmlns="http://www.w3.org/2000/svg">
<path d="M23.2803 0H2.71973C1.99867 0.000820613 1.30737 0.287627 0.797498 0.797498C0.287627 1.30737 0.000820613 1.99867 0 2.71973V16.1335C0.000820613 16.8545 0.287627 17.5458 0.797498 18.0557C1.30737 18.5656 1.99867 18.8524 2.71973 18.8532H23.2803C24.0013 18.8524 24.6926 18.5656 25.2025 18.0557C25.7124 17.5458 25.9992 16.8545 26 16.1335V2.71973C25.9992 1.99867 25.7124 1.30736 25.2026 0.797485C24.6927 0.28761 24.0014 0.000806272 23.2803 0ZM18.4446 9.4229L24.9122 4.3469V15.7011L18.4446 9.4229ZM2.71973 1.08789H23.2803C23.7129 1.08838 24.1277 1.26047 24.4336 1.56639C24.7395 1.87231 24.9116 2.28709 24.9121 2.71973V2.96397L14.446 11.1785C14.0634 11.4773 13.5917 11.6394 13.1063 11.639C12.6208 11.6386 12.1495 11.4757 11.7673 11.1764L1.08789 2.9619V2.71973C1.08838 2.28709 1.26047 1.87231 1.56639 1.56639C1.87231 1.26047 2.28709 1.08838 2.71973 1.08789ZM7.74787 9.45706L1.08789 15.7231V4.33439L7.74787 9.45706ZM23.2803 17.7653H2.71973C2.44115 17.7651 2.16723 17.6937 1.92408 17.5577C1.68092 17.4217 1.47661 17.2258 1.3306 16.9885L8.62134 10.1294L11.1008 12.0365C11.6742 12.4844 12.3809 12.7276 13.1085 12.7274C13.8361 12.7272 14.5428 12.4836 15.116 12.0354L17.5811 10.1011L24.6722 16.9842C24.5265 17.2226 24.322 17.4197 24.0782 17.5565C23.8345 17.6932 23.5598 17.7651 23.2803 17.7653Z" fill="black"/>
</svg>
