<svg width="16" height="15" viewBox="0 0 16 15" fill="none" xmlns="http://www.w3.org/2000/svg">
<path d="M14.6254 12.781C15.1441 13.2997 15.1441 14.1066 14.6254 14.6254C14.366 14.8847 14.049 15 13.7032 15C13.3573 15 13.0403 14.8847 12.781 14.6254L7.50721 9.35159L2.23343 14.6254C1.97406 14.8847 1.65706 15 1.31124 15C0.965418 15 0.648415 14.8847 0.389049 14.6254C-0.129683 14.1066 -0.129683 13.2997 0.389049 12.781L5.66282 7.50721L0.389049 2.23343C-0.129683 1.7147 -0.129683 0.907781 0.389049 0.389049C0.907781 -0.129683 1.7147 -0.129683 2.23343 0.389049L7.50721 5.66282L12.781 0.389049C13.2997 -0.129683 14.1066 -0.129683 14.6254 0.389049C15.1441 0.907781 15.1441 1.7147 14.6254 2.23343L9.35159 7.50721L14.6254 12.781Z" fill="black" fill-opacity="0.65"/>
</svg>
